<svg width="36" height="38" fill="none" xmlns="http://www.w3.org/2000/svg"><path fill-rule="evenodd" clip-rule="evenodd" d="M17.57.234a.868.868 0 0 1 .86 0L35.561 9.99a.868.868 0 0 1 .438.754v4.521c0 .48-.389.868-.868.868h-4.48a.445.445 0 0 0-.445.445v10.23c0 .788.639 1.427 1.427 1.427h3.141c.48 0 .868.388.868.868v5.079a.868.868 0 0 1-.868.867h-7.609a.868.868 0 0 1 0-1.735h5.314c.788 0 1.428-.64 1.428-1.428v-.488c0-.788-.64-1.427-1.428-1.427h-3.141a.868.868 0 0 1-.868-.868V17.56c0-.788-.64-1.427-1.428-1.427H7.803c-.788 0-1.427.639-1.427 1.427v11.543a.868.868 0 0 1-.868.867H3.163c-.788 0-1.427.64-1.427 1.428v.488c0 .789.639 1.428 1.427 1.428h5.314a.868.868 0 1 1 0 1.736H.867A.868.868 0 0 1 0 34.181v-5.08c0-.479.389-.867.868-.867h2.344c.789 0 1.428-.64 1.428-1.428V17.56c0-.788-.64-1.427-1.428-1.427H.868A.868.868 0 0 1 0 15.265v-4.521c0-.312.167-.6.438-.754L17.571.234ZM1.736 12.97c0 .788.639 1.427 1.427 1.427h29.674c.788 0 1.427-.639 1.427-1.428v-.89c0-.514-.275-.987-.72-1.241L18.705 2.389a1.428 1.428 0 0 0-1.412 0L2.457 10.838a1.428 1.428 0 0 0-.721 1.24v.892ZM18 10.982a2.498 2.498 0 1 0 0-4.997 2.498 2.498 0 0 0 0 4.997Zm-3.383 20.104c0 .974-1.253 1.37-1.813.573l-1.693-2.414a.922.922 0 1 0-1.509 1.059l4.794 6.835c.56.798 1.814.402 1.814-.573v-17.48a.796.796 0 1 0-1.593 0v12Zm7.768.573c-.56.797-1.814.401-1.814-.573v-12a.796.796 0 0 0-1.592 0v17.48c0 .975 1.254 1.37 1.813.573l4.795-6.835a.922.922 0 0 0-1.51-1.059l-1.692 2.413Z" fill="#230B59"/></svg>