<svg width="87" height="28" fill="none" xmlns="http://www.w3.org/2000/svg"><path d="M.297 1.557a.5.5 0 0 1 .492-.508l4.5-.073a.5.5 0 1 1 .016 1l-4 .065.065 4a.5.5 0 0 1-1 .015L.297 1.557ZM86.995 18.41c-20.21 14.146-41.898 9.966-58.452 2.318-8.28-3.825-15.3-8.528-20.249-12.272A109.445 109.445 0 0 1 2.52 3.78 73.919 73.919 0 0 1 .587 2.04a23.584 23.584 0 0 1-.128-.122l-.007-.006-.002-.002.347-.36.348-.359.001.001a3.091 3.091 0 0 0 .03.029l.097.092a72.922 72.922 0 0 0 1.903 1.715 108.45 108.45 0 0 0 5.721 4.631c4.91 3.715 11.868 8.375 20.066 12.163 16.402 7.577 37.668 11.623 57.459-2.23l.573.819Z" fill="#230B59"/></svg>