<svg width="155" height="122" fill="none" xmlns="http://www.w3.org/2000/svg"><path d="M67.659 74.78c.067-.302.11-.45.133-.604.118-.836.231-1.672.35-2.517.451-3.176.904-6.353 1.359-9.531.347-2.459.687-4.918 1.037-7.377.451-3.176.904-6.353 1.359-9.53.347-2.46.687-4.918 1.034-7.377l1.362-9.531c.357-2.504.7-5.01 1.074-7.512.358-2.376.524-4.755.207-7.148a15.79 15.79 0 0 0-2.077-6.088C70.075 1.852 63.367-1.022 56.451.518 51.7 1.57 48.164 4.437 45.868 8.708c-2.418 4.502-2.34 9.198-.402 13.801 7.243 17.22 14.532 34.418 21.865 51.594.078.186.174.362.328.677Zm18.12-56.358c-.317.186-.591.363-.876.503-.599.323-1.218.607-1.804.954a5.67 5.67 0 0 0-2.741 3.916 10.678 10.678 0 0 0-.108 3.577c.344 2.605.755 5.2 1.15 7.802.503 3.317 1 6.635 1.49 9.953.49 3.32.978 6.615 1.465 9.889l1.51 10.024c.443 2.97.884 5.94 1.323 8.912.03.209.096.418.177.772.16-.357.251-.566.35-.777 3.172-7.55 6.347-15.1 9.523-22.651 4.027-9.606 8.062-19.212 12.105-28.82a16.244 16.244 0 0 0 .974-9.993C108.853 5.79 101.826-1.5 92.071.269c-3.86.7-7.115 2.491-9.594 5.567-2.63 3.272-3.536 7.085-3.468 11.194.02.101.052.2.096.292 1.349 0 2.688-.027 4.026 0a9.097 9.097 0 0 1 1.795.287 1.14 1.14 0 0 1 .853.813Zm-18.29 62.149c-.112-.31-.16-.458-.22-.602l-1.828-4.193a84146.707 84146.707 0 0 0-19.794-45.349 18.925 18.925 0 0 0-1.711-3.156c-3.68-5.335-8.716-7.968-15.217-6.939-5.813.921-10.132 4.067-12.405 9.65-1.704 4.188-1.761 8.41.066 12.583 1.344 3.08 3.561 5.434 6.31 7.319l44.042 30.201c.2.13.41.26.758.486Zm20.215-.315.114.086c.173-.116.35-.227.52-.345l43.553-30.032a19.897 19.897 0 0 0 3.176-2.67c3.604-3.788 5.174-8.253 4.382-13.463a15.808 15.808 0 0 0-5.414-9.777c-2.69-2.346-5.892-3.524-9.44-3.776a14.328 14.328 0 0 0-10.354 3.245 16.188 16.188 0 0 0-4.319 5.323c-1.054 2.093-1.983 4.253-2.909 6.407a35673.402 35673.402 0 0 0-18.312 42.619c-.33.798-.662 1.59-.997 2.383Zm-18.153 5.655.05-.158c-.204-.151-.405-.307-.614-.453L28.493 57.044a20.022 20.022 0 0 0-3.627-2.013 16.277 16.277 0 0 0-8.532-1.296c-4.296.54-7.723 2.632-10.34 6.063-1.118 1.467-2.062 3.052-2.578 4.822a17.288 17.288 0 0 0-.325 8.622 15.951 15.951 0 0 0 15.511 12.654c16.754.078 33.508.025 50.262.025l.687-.01Zm15.994-.138.033.138h51.424a13.968 13.968 0 0 0 7.244-1.996c5.755-3.42 8.514-10.318 7.517-16.567-.737-4.639-3.141-8.245-6.971-10.89a14.578 14.578 0 0 0-10.772-2.517 16.783 16.783 0 0 0-7.1 2.91c-1.47 1.006-2.927 2.043-4.391 3.065l-36.39 25.419c-.201.143-.395.3-.594.448v-.01Zm-44.2 34.527c.947.149 9.388.106 9.942-.063v-16.804c.27.327.433.503.579.712 3.9 5.235 7.795 10.473 11.688 15.715a1.152 1.152 0 0 0 1.04.531c4.439-.018 8.878 0 13.318 0 .229 0 .458-.02.712-.031V93.786h-9.87v16.558l-.144.06c-.224-.287-.448-.571-.667-.86a8786.8 8786.8 0 0 1-11.675-15.272 1.238 1.238 0 0 0-1.113-.546c-4.344.02-8.69 0-13.037.012-.251 0-.503.023-.755.033l-.017 26.529Zm40.714.081h19.284c1.406 0 2.818-.056 4.22-.166a16.912 16.912 0 0 0 4.933-1.095 8.42 8.42 0 0 0 3.058-1.963c2.927-3.068 2.235-7.724-1.48-9.73-.778-.42-1.646-.67-2.471-1.007-.129-.05-.252-.121-.413-.201 2.403-.665 4.137-1.998 4.882-4.347.788-2.476.048-4.298-1.89-5.594A11.375 11.375 0 0 0 110 95.153a21.56 21.56 0 0 0-7.721-1.395c-6.556-.047-13.112-.017-19.666-.017-.185.009-.37.027-.554.055v26.585Zm-54.676-8.839c-.654 2.137-2.222 3.186-4.278 3.679a10.837 10.837 0 0 1-3.43.222c-2.709-.217-4.77-1.47-6.041-3.906a8.89 8.89 0 0 1-.803-6.36c.755-3.143 2.688-5.167 5.937-5.746a11.074 11.074 0 0 1 5.429.373c.935.261 1.769.799 2.393 1.542.31.437.596.892.853 1.362H38.4v-.365a6.702 6.702 0 0 0-1.55-3.566 10.908 10.908 0 0 0-3.365-2.74c-2.014-1.11-4.196-1.745-6.448-2.158a41.588 41.588 0 0 0-9.617-.54 23.91 23.91 0 0 0-7.882 1.678c-3.408 1.392-6.176 3.549-8.001 6.795-.941 1.684-1.578 3.471-1.523 5.426.078 2.879 1.153 5.391 2.965 7.596 1.905 2.318 4.372 3.813 7.168 4.799a25.678 25.678 0 0 0 7.102 1.357c4.085.236 8.122-.033 12.063-1.213 2.383-.715 4.595-1.777 6.455-3.476a8.618 8.618 0 0 0 2.326-3.232 3.297 3.297 0 0 0 .29-1.53l-10.999.003Zm116.316 0c-.651 2.096-2.161 3.146-4.157 3.649a10.798 10.798 0 0 1-3.569.252c-2.648-.212-4.691-1.43-5.96-3.798a8.884 8.884 0 0 1-.838-6.544c.78-3.078 2.681-5.066 5.872-5.647a10.988 10.988 0 0 1 5.496.37c1.445.475 2.578 1.336 3.134 2.819.012.037.063.057.065.06h10.946v-.398c-.124-1.334-.713-2.471-1.528-3.5a10.856 10.856 0 0 0-3.36-2.749 20.715 20.715 0 0 0-6.516-2.17 40.831 40.831 0 0 0-10.88-.424c-2.627.217-5.196.899-7.585 2.013-3.191 1.51-5.713 3.762-7.299 6.961-.896 1.8-1.404 3.692-1.155 5.718a12.79 12.79 0 0 0 3.576 7.412c2.187 2.293 4.903 3.672 7.921 4.505 3.458.956 6.989 1.135 10.55.924 2.724-.12 5.42-.616 8.008-1.475 2.104-.732 4.057-1.737 5.708-3.259 1.007-.937 1.857-1.999 2.318-3.317.136-.461.246-.929.33-1.402h-11.077Z" fill="#fff"/><path d="M67.659 74.78c-.154-.315-.252-.491-.328-.672a69818.263 69818.263 0 0 1-21.865-51.594c-1.938-4.603-2.014-9.299.403-13.801 2.295-4.279 5.83-7.138 10.583-8.19C63.368-1.01 70.075 1.864 73.498 7.57a15.792 15.792 0 0 1 2.076 6.088c.317 2.393.15 4.782-.207 7.147-.375 2.502-.717 5.009-1.074 7.513-.453 3.178-.907 6.355-1.362 9.53-.347 2.46-.687 4.919-1.034 7.377a8568.01 8568.01 0 0 1-1.36 9.531c-.35 2.46-.689 4.918-1.036 7.377-.45 3.178-.903 6.355-1.36 9.53-.118.836-.23 1.672-.349 2.518-.023.153-.065.297-.133.599ZM85.78 18.422a1.14 1.14 0 0 0-.867-.788 9.096 9.096 0 0 0-1.794-.286c-1.337-.04-2.675 0-4.027 0a1.216 1.216 0 0 1-.096-.292c-.067-4.11.839-7.928 3.469-11.195C84.942 2.786 88.198.994 92.058.294c9.755-1.762 16.782 5.522 18.247 12.214.736 3.346.396 6.84-.972 9.981-4.026 9.61-8.062 19.216-12.105 28.82l-9.524 22.65c-.09.212-.188.42-.35.778-.08-.355-.145-.564-.176-.773-.443-2.973-.884-5.943-1.323-8.912l-1.51-10.024c-.492-3.297-.98-6.593-1.465-9.888a2042.01 2042.01 0 0 0-1.49-9.954c-.388-2.6-.805-5.194-1.15-7.802a10.678 10.678 0 0 1 .108-3.576 5.67 5.67 0 0 1 2.74-3.916c.587-.347 1.206-.632 1.805-.954.295-.153.569-.33.886-.516ZM67.49 80.57c-.347-.226-.559-.354-.755-.502l-44.03-30.201c-2.749-1.885-4.966-4.239-6.31-7.32-1.822-4.172-1.762-8.395-.065-12.583 2.265-5.582 6.591-8.728 12.405-9.649 6.5-1.03 11.537 1.603 15.216 6.939.666.995 1.235 2.05 1.701 3.153 6.61 15.11 13.209 30.227 19.794 45.35l1.828 4.192c.068.174.103.312.216.622ZM87.705 80.256c.334-.793.666-1.585 1.006-2.378 6.1-14.208 12.205-28.414 18.312-42.619.926-2.154 1.855-4.314 2.909-6.407a16.2 16.2 0 0 1 4.319-5.323 14.33 14.33 0 0 1 10.354-3.244c3.549.251 6.75 1.424 9.44 3.775a15.803 15.803 0 0 1 5.404 9.777c.793 5.21-.778 9.675-4.382 13.462a19.853 19.853 0 0 1-3.176 2.67l-43.54 30.033c-.17.118-.347.229-.52.345l-.126-.09ZM69.551 85.911h-.684c-16.754 0-33.508.053-50.262-.025a15.952 15.952 0 0 1-15.51-12.654 17.287 17.287 0 0 1 .321-8.612c.504-1.762 1.457-3.355 2.575-4.823 2.617-3.43 6.04-5.521 10.341-6.062a16.278 16.278 0 0 1 8.532 1.296 20.024 20.024 0 0 1 3.627 2.013L68.984 85.31c.209.146.41.302.614.453l-.048.148ZM85.545 85.783c.199-.149.392-.305.594-.445l36.39-25.42c1.464-1.021 2.921-2.05 4.391-3.065a16.783 16.783 0 0 1 7.1-2.904 14.578 14.578 0 0 1 10.772 2.516c3.83 2.645 6.234 6.252 6.971 10.89 1.007 6.252-1.762 13.148-7.517 16.568a13.97 13.97 0 0 1-7.244 1.988H85.578l-.033-.128ZM41.346 120.3V93.771c.267 0 .503-.033.755-.033 4.346 0 8.693 0 13.037-.012a1.239 1.239 0 0 1 1.112.546c3.886 5.099 7.782 10.189 11.688 15.271.219.29.443.574.667.861l.143-.06V93.786h9.871v26.562c-.252 0-.483.03-.712.03H64.588a1.138 1.138 0 0 1-1.04-.531 5352.626 5352.626 0 0 0-11.687-15.715c-.146-.198-.31-.385-.579-.712v16.805c-.551.181-8.99.224-9.936.075ZM27.383 111.542h10.988a3.299 3.299 0 0 1-.29 1.53 8.606 8.606 0 0 1-2.325 3.231c-1.86 1.699-4.072 2.769-6.455 3.476-3.941 1.18-7.978 1.45-12.063 1.213a25.713 25.713 0 0 1-7.102-1.356c-2.796-.987-5.263-2.482-7.168-4.8-1.812-2.205-2.887-4.716-2.965-7.595-.055-1.956.582-3.743 1.523-5.427 1.825-3.249 4.593-5.405 8-6.795a23.91 23.91 0 0 1 7.883-1.678 41.588 41.588 0 0 1 9.617.54c2.252.413 4.432 1.048 6.448 2.157a10.908 10.908 0 0 1 3.364 2.741 6.702 6.702 0 0 1 1.56 3.564v.365H27.457c-.258-.47-.543-.925-.853-1.362a4.822 4.822 0 0 0-2.394-1.542 11.073 11.073 0 0 0-5.428-.373c-3.25.579-5.175 2.602-5.937 5.746a8.89 8.89 0 0 0 .803 6.36c1.258 2.436 3.327 3.689 6.04 3.906 1.148.109 2.306.034 3.43-.222 2.044-.493 3.612-1.543 4.266-3.679ZM143.699 111.542h11.074c-.083.473-.193.941-.33 1.402-.46 1.318-1.306 2.38-2.317 3.317-1.651 1.51-3.604 2.516-5.708 3.259a29.561 29.561 0 0 1-8.009 1.475c-3.561.211-7.092.032-10.55-.924-3.02-.833-5.733-2.212-7.92-4.505a12.793 12.793 0 0 1-3.569-7.422c-.252-2.026.252-3.918 1.155-5.718 1.591-3.199 4.113-5.441 7.299-6.961a22.314 22.314 0 0 1 7.585-2.014 40.832 40.832 0 0 1 10.88.42 20.718 20.718 0 0 1 6.516 2.17 10.847 10.847 0 0 1 3.357 2.75c.816 1.03 1.405 2.168 1.528 3.502v.397h-10.948s-.053-.022-.065-.06c-.556-1.482-1.689-2.343-3.134-2.819a10.988 10.988 0 0 0-5.501-.37c-3.191.582-5.092 2.57-5.872 5.648a8.88 8.88 0 0 0 .838 6.543c1.259 2.369 3.312 3.587 5.96 3.798 1.195.115 2.401.03 3.569-.252 2.001-.49 3.511-1.54 4.162-3.636ZM82.06 120.391V93.794c.183-.028.368-.046.553-.056 6.544 0 13.11-.03 19.666.018A21.554 21.554 0 0 1 110 95.15c.766.296 1.498.673 2.183 1.125 1.937 1.296 2.677 3.118 1.89 5.595-.755 2.348-2.479 3.682-4.883 4.346.164.081.284.151.413.202.825.332 1.694.581 2.471 1.006 3.715 2.014 4.407 6.662 1.48 9.73a8.394 8.394 0 0 1-3.058 1.963c-1.58.611-3.243.98-4.933 1.095a56.026 56.026 0 0 1-4.22.166c-6.134.015-12.267.015-18.398 0l-.885.013Zm10.318-11.197v4.844c.252.016.46.033.667.033h7.11c.305.004.61-.011.914-.043a3.437 3.437 0 0 0 2.189-1.006c.783-.828.816-1.978 0-2.769a3.685 3.685 0 0 0-1.351-.835 5.6 5.6 0 0 0-1.729-.252 443.472 443.472 0 0 0-7.11 0c-.224-.02-.45.005-.69.018v.01Zm.07-6.347c.082.03.167.052.252.065 2.63 0 5.26 0 7.893-.015.348-.02.69-.106 1.007-.252.755-.312 1.258-.871 1.258-1.706 0-.836-.503-1.462-1.289-1.762a4.222 4.222 0 0 0-1.439-.252c-2.371-.025-4.744 0-7.118 0-.18 0-.36.033-.573.053l.01 3.869Z" fill="#230B59"/></svg>