<svg width="39" height="39" fill="none" xmlns="http://www.w3.org/2000/svg"><mask id="a" style="mask-type:alpha" maskUnits="userSpaceOnUse" x="0" y="-1" width="40" height="40"><circle r="19.5" transform="matrix(-1 0 0 1 19.501 19.5)" fill="#D9D9D9"/></mask><g mask="url(#a)"><path fill="#BDC6F5" d="M45.095-6.907H-7.31v57.688h52.406z"/><path d="M23.534 20.602c.286-1.43.754-2.86 1.274-4.108 1.04-2.366 2.183-3.51 2.183-5.018 0-1.378-.727-2.132-2.105-2.132-1.326 0-2.392.806-3.433 2.652a15.342 15.342 0 0 0-1.534 4.108c-.233-1.69-.311-2.886-.311-4.082 0-3.354-.599-4.108-2.21-4.108-1.846 0-2.912 1.69-2.912 4.316 0 1.768.337 3.614.857 5.018a2.193 2.193 0 0 0-.832-.156c-1.534 0-2.625 1.508-2.625 3.666 0 .962.234 1.846.598 2.522-.338 2.262.415 4.108 1.845 5.122-.181.234-.286.468-.286.702 0 1.222 1.716 2.21 4.707 2.21 2.6 0 4.497-1.066 4.497-2.418 0-.364-.181-.702-.442-.936 1.639-1.066 2.808-2.782 2.808-4.498 0-1.43-.701-2.366-2.08-2.86Zm-8.996-2.496c.364 0 .857.078 1.351.338.26.442.547.806.858.988-.754-2.184-1.195-4.836-1.195-6.968 0-2.132.623-3.432 1.742-3.432.883 0 1.247.546 1.247 2.938 0 2.184.494 4.836 1.456 6.734 0 .026.026.026.026.052.625-2.626 1.223-4.498 2.393-6.37.91-1.456 1.69-2.054 2.495-2.054.624 0 1.04.442 1.04 1.066 0 1.43-1.3 2.73-2.131 4.888-.442 1.248-.962 2.548-1.223 4.082a12.604 12.604 0 0 0-1.091-.13c-1.535-.078-1.977-.728-3.303-.728-.65 0-1.17.182-1.56.546-.078-.13-.233-.234-.468-.364.078.234.156.416.183.702a2.345 2.345 0 0 0-.338 1.248c0 .312.052.598.181.858-.39.936-.988 1.404-1.534 1.378-.91-.078-1.69-1.534-1.69-3.172 0-1.43.676-2.6 1.56-2.6Zm5.85 10.816a6.074 6.074 0 0 0 1.637-.546.822.822 0 0 1 .209.572c0 .806-1.587 1.404-3.485 1.404-1.95 0-3.717-.546-3.717-1.3 0-.078 0-.13.025-.208.572.26 1.196.416 1.899.468-2.184-.91-3.563-2.834-3.51-4.862.415.286.883.468 1.377.468.806 0 1.535-.468 2.029-1.534.155.13.337.26.52.39-.546 1.3-.287 3.432.494 4.056-.338-1.326-.209-2.548.285-3.666 1.17.494 2.808.546 3.666.208-1.117-.156-2.21-.442-3.431-1.092-.91-.494-1.352-1.04-1.352-1.716 0-.78.416-1.222 1.17-1.222 1.195 0 1.663.78 3.223.832 2.159.13 3.069.962 3.069 2.496 0 1.846-1.456 3.848-4.108 5.252Z" fill="#230B59"/></g></svg>