<svg width="39" height="39" fill="none" xmlns="http://www.w3.org/2000/svg"><mask id="a" style="mask-type:alpha" maskUnits="userSpaceOnUse" x="0" y="-1" width="40" height="40"><circle r="19.5" transform="matrix(-1 0 0 1 19.501 19.5)" fill="#D9D9D9"/></mask><g mask="url(#a)"><path fill="#4D5898" d="M45.095-6.907H-7.31v57.688h52.406z"/><path d="m16.738 9.94 1.442 2.322.6-2.723-2.042.4Zm3.364-.4.56 2.722 1.462-2.323-2.022-.4Zm-6.107 1.981 2.423 1.322-.841-2.643-1.582 1.321Zm8.45 1.342 2.422-1.322-1.582-1.341-.84 2.663Zm10.03 10.511c0-1.561-.62-2.883-.62-4.645 0-.58-.02-.78.08-2.342.08-1.242-.34-2.003-1.282-2.003-.34 0-.6.08-.82.28 0-1.2-.421-1.661-1.382-1.661-.64 0-1.101.36-1.382 1.021-.22-.28-.54-.42-.92-.42-.862 0-1.502.58-1.743 1.601-.24 1.242-.1 4.125-.14 5.426-.04 1.121-.08 1.382-.26 1.382-.3 0-1.262-1.001-2.242-1.001-1.082 0-2.123.62-2.123 1.601 0 .581.38 1.082 1.181 1.262.881.18 1.682.4 2.764 1.521.44.44 1 .921 1.781 1.102-.08.12-.12.26-.12.4 0 .68 1.041 1.221 2.483 1.221 2.443 0 3.944-.56 3.944-1.541 0-.32-.12-.621-.42-.881.78-.5 1.221-1.322 1.221-2.323Zm-15.377-2.342c-.98 0-1.942 1-2.242 1-.18 0-.22-.26-.26-1.38-.04-1.302.1-4.185-.14-5.427-.24-1.02-.881-1.601-1.722-1.601-.38 0-.721.14-.941.42-.28-.66-.741-1.021-1.362-1.021-.981 0-1.401.46-1.401 1.662-.22-.2-.481-.28-.801-.28-.961 0-1.382.76-1.302 2.002.12 1.561.08 1.762.08 2.342 0 1.762-.62 3.084-.62 4.645 0 1.001.44 1.822 1.221 2.303-.3.28-.42.58-.42.9 0 .982 1.501 1.542 3.964 1.542 1.441 0 2.463-.54 2.463-1.22 0-.141-.04-.281-.12-.401.78-.18 1.34-.661 1.781-1.102 1.082-1.12 1.902-1.341 2.763-1.521.821-.18 1.182-.681 1.182-1.262 0-.98-1.021-1.601-2.123-1.601Zm11.333-7.348c.66 0 .96.58.82 2.582-.2 1.262-.26 2.543-.3 4.365-.24-.02-.5-.02-.82-.02-.34 0-.681.02-.982.06-.02-1.121.06-3.243.24-5.506.06-.96.441-1.481 1.042-1.481Zm-17.98.02c.6 0 .961.52 1.021 1.481.18 2.263.26 4.385.24 5.506-.3-.04-.62-.06-.96-.06-.32 0-.601 0-.841.02-.04-1.822-.1-3.103-.3-4.365-.141-2.002.16-2.582.84-2.582Zm20.543 12.794c0 .54-1.382.94-3.264.94-.8 0-1.822-.3-1.822-.6 0-.1.04-.18.08-.26.26 0 .52-.04.821-.1-1.662-.3-2.122-.861-2.783-1.602-.82-.921-1.942-1.482-2.903-1.642-.6-.1-.761-.34-.761-.6 0-.641.7-.902 1.382-.902.84 0 1.982 1.041 2.382 1.041.54 0 .72-.64.8-2.202.041-1.321-.06-4.064.181-5.246.16-.7.52-1.04 1.041-1.04.34 0 .721.28.661.82v.06c-.18 1.662-.22 4.025-.18 5.586-.52.12-.901.28-.981.48 1.682-.22 3.083-.3 4.445-.2-.12-.14-.34-.26-.641-.32 0-1.261.1-2.863.26-4.244.16-1.222.44-1.402.921-1.402.54 0 .7.44.64 1.301-.08.881-.12 1.702-.12 2.363 0 2.263.621 2.903.621 4.625 0 1.282-.48 2.062-1.862 2.823.26-.04.5-.1.741-.18.26.16.34.32.34.5Zm-13.235-3.244c-.981.16-2.102.72-2.923 1.642-.66.74-1.121 1.301-2.763 1.602.28.06.54.1.8.1.04.08.08.16.08.26 0 .3-1.02.6-1.821.6-1.882 0-3.264-.4-3.264-.94 0-.18.08-.34.36-.52.22.1.481.16.741.2-1.401-.762-1.882-1.542-1.882-2.824 0-1.722.621-2.362.621-4.625 0-.66-.04-1.482-.12-2.362-.06-.861.1-1.302.64-1.302.481 0 .761.18.922 1.402.16 1.381.26 2.983.26 4.244-.32.06-.52.18-.64.32 1.36-.1 2.762-.02 4.464.2-.1-.2-.48-.36-1.001-.48.06-1.561 0-3.924-.18-5.586v-.06c-.06-.54.32-.82.68-.82.501 0 .861.34 1.022 1.04.24 1.182.14 3.925.18 5.246.08 1.562.26 2.203.82 2.203.381 0 1.522-1.042 2.363-1.042.681 0 1.382.26 1.382.901 0 .26-.16.501-.74.601Zm9.81-.66c-.32-.341-.7-.501-1.18-.521.6.46.88.78 1.08 1.381.04.881.341 1.462.962 1.802-.32-.62-.44-1.241-.44-2.002 0-.52.18-1.041.5-1.522-.44.08-.781.4-.921.861Zm-16.257.02c-.16-.461-.48-.782-.921-.862.3.48.48 1.002.48 1.522 0 .76-.12 1.382-.42 2.002.6-.34.901-.92.941-1.802.2-.6.5-.92 1.081-1.381-.46.02-.84.18-1.161.52Z" fill="#FFF3D8"/></g></svg>