<svg width="171" height="35" fill="none" xmlns="http://www.w3.org/2000/svg"><path d="M69.042 24.466h-3.06c-.274 0-.376-.223-.5-.44l-3.61-5.342h-.553c-.655 0-2.68-.062-3.257-.09v5.433c0 .24-.202.44-.479.44h-2.505a.54.54 0 0 1-.353-.13.417.417 0 0 1-.147-.31V9.587c0-.441.297-.595.801-.66 1.306-.177 4.107-.286 5.939-.286 3.858 0 7.422 1.212 7.422 4.98v.198c0 2.333-1.327 3.61-3.382 4.311l3.932 5.897a.259.259 0 0 1 .052.178c0 .15-.1.261-.3.261Zm-3.76-10.846c0-1.652-1.457-2.356-3.963-2.356-.529 0-2.809.043-3.257.086v4.779c.397.021 2.826.066 3.257.066 2.578 0 3.964-.438 3.964-2.376v-.199Zm10.742 6.506c0 1.848.08 1.896 1.975 1.896h6.344c.133 0 .26.047.355.13a.418.418 0 0 1 .148.311v1.407c0 .311-.126.422-.503.464-.801.11-2.434.307-5.413.307-4.16 0-6.367.026-6.367-4.515v-6.97c0-4.54 2.207-4.514 6.367-4.514 2.98 0 4.612.198 5.413.307.377.043.503.155.503.464v1.408c0 .24-.226.443-.503.443h-6.344c-1.894 0-1.975.05-1.975 1.891v2.022h8.02c.132 0 .258.046.352.128a.42.42 0 0 1 .15.31v1.59a.42.42 0 0 1-.149.31.542.542 0 0 1-.354.13h-8.02v2.481Zm20.073 4.515c-4.031 0-7.504-1.54-7.504-6.236V9.235c0-.244.229-.42.504-.42h2.477c.278 0 .502.176.502.42v9.168c0 2.514 1.32 3.706 4.022 3.706 2.708 0 4.029-1.192 4.029-3.706V9.236c0-.244.224-.42.499-.42h2.48c.278 0 .504.176.504.42v9.168c-.001 4.695-3.476 6.237-7.513 6.237Zm23.989-13.27h-4.999v12.656a.422.422 0 0 1-.152.31.542.542 0 0 1-.355.13h-2.481a.54.54 0 0 1-.353-.13.418.418 0 0 1-.149-.31V11.37h-5.002c-.273 0-.499-.15-.499-.393v-1.74c0-.245.226-.42.499-.42h13.49c.271 0 .497.175.497.42v1.74c.001.242-.225.393-.496.393Zm34.03 13.095h-3.059c-.276 0-.374-.223-.499-.44l-3.611-5.342h-.559c-.648 0-2.676-.062-3.256-.09v5.433c0 .24-.198.44-.472.44h-2.503a.54.54 0 0 1-.354-.13.416.416 0 0 1-.149-.31V9.587c0-.441.297-.595.8-.66 1.302-.177 4.108-.286 5.933-.286 3.862 0 7.424 1.212 7.424 4.98v.198c0 2.333-1.33 3.61-3.383 4.311l3.939 5.897a.267.267 0 0 1 .05.178c0 .15-.102.261-.301.261Zm-3.759-10.846c0-1.652-1.459-2.356-3.969-2.356-.523 0-2.803.043-3.256.086v4.779c.406.021 2.837.066 3.256.066 2.585 0 3.969-.438 3.969-2.376v-.199Zm13.323 11.03c-2.215 0-4.459-.333-5.664-.576-.248-.045-.476-.198-.476-.44v-1.587c0-.24.228-.42.476-.42h.049c1.005.112 3.351.398 5.667.398 2.228 0 2.91-.702 2.91-1.978 0-1.653-4.486-2.568-6.676-3.36-2.18-.794-2.952-2.312-2.952-3.852 0-2.425 2.219-4.188 6.879-4.188 2.389 0 4.576.4 5.427.58.252.044.449.198.449.417v1.63c0 .218-.171.397-.426.397h-.047c-1.656-.132-3.371-.4-5.549-.4-1.858 0-3.247.573-3.247 1.564 0 .725.942 1.391 2.055 1.78 1.112.385 2.571.884 4.238 1.473 2.111.75 3.48 1.844 3.48 3.96-.001 2.223-1.579 4.603-6.593 4.603Zm-37.059-4.524c0 1.848.077 1.896 1.977 1.896h6.348a.541.541 0 0 1 .351.132.419.419 0 0 1 .146.31v1.406c0 .311-.126.422-.497.464-.807.11-2.436.307-5.417.307-4.167 0-6.369.026-6.369-4.515v-6.97c0-4.54 2.202-4.514 6.369-4.514 2.981 0 4.61.198 5.417.307.371.043.497.155.497.464v1.408c0 .24-.228.443-.497.443h-6.348c-1.9 0-1.977.05-1.977 1.891v2.022h8.02c.278 0 .497.2.497.438v1.59a.415.415 0 0 1-.145.31.536.536 0 0 1-.352.13h-8.02v2.481ZM18.52 12.075c.21.345.067.777-.327.964a.914.914 0 0 1-.62.055.8.8 0 0 1-.481-.346c-.216-.344-.067-.778.326-.964a.89.89 0 0 1 .62-.056.853.853 0 0 1 .28.131c.082.06.15.133.201.216Zm-4.008 5.578a.44.44 0 0 0-.228.25.378.378 0 0 0 .037.32.43.43 0 0 0 .118.127.532.532 0 0 0 .672-.064.399.399 0 0 0 .089-.144.364.364 0 0 0-.04-.32.474.474 0 0 0-.284-.202.54.54 0 0 0-.364.033Zm-.081-1.715a.507.507 0 0 0-.265.29.436.436 0 0 0 .042.369c.15.24.485.328.756.2.269-.128.371-.43.226-.663a.509.509 0 0 0-.14-.148.628.628 0 0 0-.62-.047Zm.506-1.65a.586.586 0 0 0-.307.331.503.503 0 0 0 .045.426c.17.27.556.374.863.227a.624.624 0 0 0 .193-.139.54.54 0 0 0 .117-.193.495.495 0 0 0-.049-.427.632.632 0 0 0-.378-.268.72.72 0 0 0-.484.043Zm1.032-1.428a.705.705 0 0 0-.217.157.606.606 0 0 0-.132.218.555.555 0 0 0 .058.482c.188.303.617.418.964.253a.702.702 0 0 0 .217-.155.606.606 0 0 0 .133-.217.554.554 0 0 0-.055-.48.65.65 0 0 0-.176-.19.75.75 0 0 0-.246-.116.808.808 0 0 0-.546.048Zm-.79 6.417a.392.392 0 0 0-.12.087.338.338 0 0 0-.073.122.31.31 0 0 0 .032.268.399.399 0 0 0 .238.168c.1.027.21.017.303-.026a.368.368 0 0 0 .19-.21.318.318 0 0 0-.032-.268.395.395 0 0 0-.236-.167.45.45 0 0 0-.302.026Zm9.22-5.84a.48.48 0 0 0 .286.203.548.548 0 0 0 .366-.03.442.442 0 0 0 .23-.252.381.381 0 0 0-.037-.32.433.433 0 0 0-.118-.127.538.538 0 0 0-.528-.043.47.47 0 0 0-.145.104.406.406 0 0 0-.088.144.371.371 0 0 0 .035.321Zm-1.62-.906c.147.238.491.325.753.195.277-.129.376-.425.228-.662a.547.547 0 0 0-.328-.236.625.625 0 0 0-.422.035.516.516 0 0 0-.27.293.444.444 0 0 0 .04.375Zm-1.87-.441a.573.573 0 0 0 .156.167c.064.047.138.081.218.102a.71.71 0 0 0 .48-.045.625.625 0 0 0 .193-.138.54.54 0 0 0 .117-.193c.025-.07.033-.144.025-.217a.51.51 0 0 0-.073-.21.578.578 0 0 0-.157-.168.66.66 0 0 0-.22-.101.713.713 0 0 0-.483.046.624.624 0 0 0-.191.139.54.54 0 0 0-.116.193.494.494 0 0 0 .05.425Zm-1.955.068a.656.656 0 0 0 .178.19.754.754 0 0 0 .247.116c.09.024.184.032.278.024a.79.79 0 0 0 .268-.072.658.658 0 0 0 .344-.376.567.567 0 0 0-.056-.48.71.71 0 0 0-.424-.29.805.805 0 0 0-.535.052.656.656 0 0 0-.343.364.56.56 0 0 0 .043.472Zm6.663 2.563c.102.17.345.232.532.14a.386.386 0 0 0 .12-.085.33.33 0 0 0 .074-.12.304.304 0 0 0-.031-.264.396.396 0 0 0-.236-.172.454.454 0 0 0-.305.023c-.185.094-.262.311-.154.478Zm-1.376 6.671a.74.74 0 0 0-.201-.217.852.852 0 0 0-.281-.131.914.914 0 0 0-.622.058.792.792 0 0 0-.244.177.684.684 0 0 0-.148.246.625.625 0 0 0 .067.542c.214.345.707.471 1.102.29.392-.192.538-.626.327-.965Zm-7.312-.691a.473.473 0 0 0-.283-.2.54.54 0 0 0-.362.031.47.47 0 0 0-.143.104.404.404 0 0 0-.087.144.37.37 0 0 0 .037.318.427.427 0 0 0 .117.128.53.53 0 0 0 .67-.063.404.404 0 0 0 .088-.144.369.369 0 0 0-.037-.318Zm1.622.907a.548.548 0 0 0-.33-.235.625.625 0 0 0-.422.039.542.542 0 0 0-.17.12.468.468 0 0 0-.102.17.429.429 0 0 0 .047.372c.14.238.48.33.75.201a.516.516 0 0 0 .268-.293.444.444 0 0 0-.041-.374Zm1.876.44c-.163-.27-.553-.366-.866-.226a.584.584 0 0 0-.305.333.503.503 0 0 0 .048.425c.17.274.555.375.864.229a.626.626 0 0 0 .193-.139.538.538 0 0 0 .118-.193.491.491 0 0 0-.052-.428Zm1.952-.068a.708.708 0 0 0-.427-.304.808.808 0 0 0-.545.049c-.35.162-.471.543-.282.853a.64.64 0 0 0 .176.19.736.736 0 0 0 .246.115.792.792 0 0 0 .542-.053c.35-.161.475-.546.29-.85Zm4.433-5.489c.235-.118.325-.375.202-.575a.438.438 0 0 0-.119-.126.538.538 0 0 0-.527-.043.467.467 0 0 0-.145.104.403.403 0 0 0-.089.145.368.368 0 0 0 .04.321c.059.097.159.17.278.202.12.032.25.022.36-.028Zm.09 1.712c.27-.13.368-.427.22-.663a.508.508 0 0 0-.137-.147.627.627 0 0 0-.613-.051.517.517 0 0 0-.27.292.445.445 0 0 0 .041.375c.143.233.492.32.759.194Zm-.51 1.65c.316-.15.426-.486.265-.76a.63.63 0 0 0-.378-.27.718.718 0 0 0-.485.042.587.587 0 0 0-.309.334.505.505 0 0 0 .049.428c.08.129.216.225.376.267.161.042.334.027.482-.042Zm-1.025 1.42c.347-.158.476-.546.287-.85-.19-.304-.622-.422-.968-.254a.7.7 0 0 0-.215.157.608.608 0 0 0-.13.216.559.559 0 0 0 .056.48.648.648 0 0 0 .178.19.747.747 0 0 0 .247.114.806.806 0 0 0 .545-.053ZM24.016 10.37a.882.882 0 0 1-.19.317 1.02 1.02 0 0 1-.312.228 1.172 1.172 0 0 1-1.154-.093.953.953 0 0 1-.262-.275.807.807 0 0 1-.083-.7.953.953 0 0 1 .503-.545 1.18 1.18 0 0 1 .794-.073c.132.035.255.092.36.168.107.076.196.17.261.275a.811.811 0 0 1 .083.698Zm-10.002 2.167a.587.587 0 0 0-.393.04.478.478 0 0 0-.248.269.405.405 0 0 0 .052.336.51.51 0 0 0 .302.21.578.578 0 0 0 .384-.033.474.474 0 0 0 .25-.259c.085-.239-.077-.49-.348-.563Zm1.81-1.75a.717.717 0 0 0-.484.046.62.62 0 0 0-.19.14.535.535 0 0 0-.137.411.51.51 0 0 0 .073.208c.04.065.095.122.16.168a.67.67 0 0 0 .22.1.718.718 0 0 0 .484-.046.583.583 0 0 0 .306-.332.503.503 0 0 0-.054-.426.63.63 0 0 0-.379-.27Zm2.318-1.234a.915.915 0 0 0-.615.059.744.744 0 0 0-.39.422.638.638 0 0 0 .068.54.8.8 0 0 0 .482.341.91.91 0 0 0 .615-.057.79.79 0 0 0 .242-.178.64.64 0 0 0 .076-.785.802.802 0 0 0-.478-.342Zm2.568-.505a1.025 1.025 0 0 0-.693.064.889.889 0 0 0-.273.2.768.768 0 0 0-.164.277.704.704 0 0 0 .073.608.831.831 0 0 0 .227.24 1.023 1.023 0 0 0 1.005.08.831.831 0 0 0 .437-.476.703.703 0 0 0-.07-.608.83.83 0 0 0-.227-.24.952.952 0 0 0-.315-.145Zm-7.84 5.655a.431.431 0 0 0-.291.027.375.375 0 0 0-.115.084.324.324 0 0 0-.069.117c-.014.042-.02.087-.014.132.005.044.02.087.043.126.024.04.057.075.096.103.04.028.085.05.133.062.206.052.419-.052.479-.231a.298.298 0 0 0-.032-.258.354.354 0 0 0-.097-.101.404.404 0 0 0-.134-.061Zm15.581 2.036a.399.399 0 0 0 .042.346.471.471 0 0 0 .13.135.579.579 0 0 0 .57.044.47.47 0 0 0 .248-.27.404.404 0 0 0-.042-.344.507.507 0 0 0-.307-.217.581.581 0 0 0-.392.037.472.472 0 0 0-.249.27Zm-.595-2.264a.492.492 0 0 0 .05.427c.04.065.095.122.16.168.065.047.14.081.221.102.34.088.69-.083.79-.38.099-.297-.093-.606-.43-.692a.72.72 0 0 0-.484.043.623.623 0 0 0-.191.14.539.539 0 0 0-.116.192Zm-1.403-2.037a.628.628 0 0 0 .067.54c.05.082.12.154.202.213a.851.851 0 0 0 .279.128.915.915 0 0 0 .614-.058.79.79 0 0 0 .242-.178.684.684 0 0 0 .146-.246.624.624 0 0 0-.066-.54.735.735 0 0 0-.202-.211.912.912 0 0 0-.893-.068.741.741 0 0 0-.389.42Zm-1.973-1.582a.713.713 0 0 0 .075.608c.116.185.311.323.542.382.232.06.48.036.692-.066a.828.828 0 0 0 .435-.477.704.704 0 0 0-.072-.608.83.83 0 0 0-.227-.239.953.953 0 0 0-.314-.144 1.025 1.025 0 0 0-.694.066.83.83 0 0 0-.438.478Zm3.762 8.17a.305.305 0 0 0 .032.255c.049.079.13.138.227.164a.431.431 0 0 0 .293-.027.375.375 0 0 0 .115-.085.324.324 0 0 0 .083-.25.307.307 0 0 0-.044-.126.351.351 0 0 0-.096-.101.403.403 0 0 0-.133-.061.435.435 0 0 0-.292.03.354.354 0 0 0-.185.2Zm-8.88 5.275a.812.812 0 0 0-.085-.701.959.959 0 0 0-.262-.276 1.1 1.1 0 0 0-.362-.166 1.18 1.18 0 0 0-.794.075c-.12.058-.227.136-.313.23a.883.883 0 0 0-.188.317.812.812 0 0 0 .084.7c.066.107.155.2.262.276.107.076.23.132.363.166.553.14 1.137-.139 1.295-.621Zm-6.44-6.895a.404.404 0 0 0-.04-.345.507.507 0 0 0-.306-.218.586.586 0 0 0-.393.04.476.476 0 0 0-.25.268.399.399 0 0 0 .044.344.472.472 0 0 0 .129.135.576.576 0 0 0 .57.046.502.502 0 0 0 .154-.113.432.432 0 0 0 .093-.157Zm.597 2.263a.488.488 0 0 0-.05-.423.576.576 0 0 0-.16-.166.66.66 0 0 0-.219-.1.707.707 0 0 0-.485.042.613.613 0 0 0-.19.14.53.53 0 0 0-.114.195.499.499 0 0 0 .053.424c.08.13.217.226.378.268a.713.713 0 0 0 .483-.047.578.578 0 0 0 .304-.333Zm1.405 2.04a.642.642 0 0 0-.069-.542.804.804 0 0 0-.482-.344.909.909 0 0 0-.614.06.737.737 0 0 0-.387.424.627.627 0 0 0 .064.54.74.74 0 0 0 .203.213.914.914 0 0 0 .896.072.791.791 0 0 0 .242-.177.684.684 0 0 0 .147-.246Zm1.974 1.585a.717.717 0 0 0-.077-.61.9.9 0 0 0-.543-.383 1.023 1.023 0 0 0-.691.066.884.884 0 0 0-.271.201.763.763 0 0 0-.162.278.703.703 0 0 0 .074.606.83.83 0 0 0 .227.239c.092.065.199.114.313.144.232.059.48.035.692-.067a.834.834 0 0 0 .438-.474Zm10.46-1.686a.582.582 0 0 0 .395-.037.472.472 0 0 0 .25-.27.409.409 0 0 0-.044-.345.512.512 0 0 0-.306-.219.584.584 0 0 0-.391.039.474.474 0 0 0-.249.269.406.406 0 0 0 .041.344.508.508 0 0 0 .305.219Zm-1.806 1.752a.71.71 0 0 0 .482-.045.578.578 0 0 0 .305-.331.493.493 0 0 0-.048-.427.581.581 0 0 0-.159-.168.668.668 0 0 0-.22-.102.72.72 0 0 0-.486.045.585.585 0 0 0-.308.334.506.506 0 0 0 .056.425c.081.13.217.226.378.269Zm-2.319 1.234a.908.908 0 0 0 .617-.057.791.791 0 0 0 .243-.179.684.684 0 0 0 .145-.247.628.628 0 0 0-.066-.539.74.74 0 0 0-.203-.212.914.914 0 0 0-.893-.07.793.793 0 0 0-.242.177.685.685 0 0 0-.146.245.628.628 0 0 0 .065.54.74.74 0 0 0 .201.213.849.849 0 0 0 .28.129Zm-2.566.503a1.018 1.018 0 0 0 .692-.061.884.884 0 0 0 .272-.2.763.763 0 0 0 .163-.276.706.706 0 0 0-.074-.608.896.896 0 0 0-.542-.384 1.022 1.022 0 0 0-.692.066.829.829 0 0 0-.437.476.713.713 0 0 0 .078.606c.116.185.31.322.54.381ZM29.199 10.838a1.43 1.43 0 0 1-.937.367c-.355.009-.7-.107-.957-.322A1.19 1.19 0 0 1 27 10.51a1.048 1.048 0 0 1-.029-.902c.063-.145.158-.277.28-.389.12-.113.265-.203.425-.267a1.492 1.492 0 0 1 1.468.216c.258.215.41.512.42.825.01.314-.122.618-.366.846ZM15.841 8.159a.719.719 0 0 0-.473-.157.71.71 0 0 0-.463.18.544.544 0 0 0-.178.416c.005.154.079.3.205.405a.718.718 0 0 0 .474.158.707.707 0 0 0 .462-.182.544.544 0 0 0 .179-.415.552.552 0 0 0-.206-.405Zm3.349-1.12a.886.886 0 0 0-.584-.193.873.873 0 0 0-.569.224.71.71 0 0 0-.169.238.641.641 0 0 0 .019.55.73.73 0 0 0 .185.228c.158.13.368.199.584.193a.873.873 0 0 0 .57-.226.673.673 0 0 0 .22-.513.685.685 0 0 0-.256-.501Zm3.592-.23a1.124 1.124 0 0 0-.741-.248c-.274.007-.535.11-.724.285a.848.848 0 0 0-.26.646.87.87 0 0 0 .325.623c.196.162.456.252.726.248.27-.003.527-.098.718-.266a.854.854 0 0 0 .281-.652.869.869 0 0 0-.325-.637Zm3.399.764a1.195 1.195 0 0 0-.385-.213 1.308 1.308 0 0 0-.893.023c-.14.055-.265.134-.37.232a1.016 1.016 0 0 0-.242.339.914.914 0 0 0 .025.784c.062.123.152.234.263.326.225.186.526.286.835.278.309-.008.602-.123.814-.32a.96.96 0 0 0 .317-.733.976.976 0 0 0-.364-.716Zm-13.18 2.548a.535.535 0 0 0-.352-.117.529.529 0 0 0-.344.135.43.43 0 0 0-.103.143.386.386 0 0 0 .01.33.436.436 0 0 0 .112.139.55.55 0 0 0 .54.081.493.493 0 0 0 .156-.099.406.406 0 0 0 .135-.31.412.412 0 0 0-.154-.302Zm17.152 10.688a.545.545 0 0 0-.18.416c.005.155.08.3.207.407a.72.72 0 0 0 .47.147.705.705 0 0 0 .454-.183.546.546 0 0 0 .18-.41.551.551 0 0 0-.195-.403.718.718 0 0 0-.474-.157.707.707 0 0 0-.462.183Zm.847-3a.672.672 0 0 0-.218.512c.006.19.098.37.255.5.078.064.17.115.27.149a.915.915 0 0 0 .625-.017.819.819 0 0 0 .259-.163.707.707 0 0 0 .17-.237.635.635 0 0 0-.02-.549.725.725 0 0 0-.186-.227.887.887 0 0 0-.585-.194.874.874 0 0 0-.57.225Zm-.26-3.161a.903.903 0 0 0-.215.301.811.811 0 0 0 .024.697c.056.11.137.207.236.29.099.081.215.146.343.188a1.162 1.162 0 0 0 .792-.021c.124-.05.236-.12.33-.207a.849.849 0 0 0 .267-.648.868.868 0 0 0-.325-.628 1.12 1.12 0 0 0-.732-.247c-.272.005-.53.104-.72.275Zm-1.255-2.93a.984.984 0 0 0-.3.534.914.914 0 0 0 .086.59c.095.186.25.342.446.45.196.107.423.16.654.155.23-.007.454-.073.641-.191.188-.118.332-.282.413-.472a.908.908 0 0 0 .045-.594 1.005 1.005 0 0 0-.338-.516c-.465-.388-1.204-.366-1.647.045Zm-1.152 11.694a.407.407 0 0 0-.133.31c.004.115.06.224.154.303.047.039.103.07.163.089a.553.553 0 0 0 .377-.012.493.493 0 0 0 .258-.241.379.379 0 0 0-.011-.33.5.5 0 0 0-.275-.227.546.546 0 0 0-.533.108Zm-14.227 1.515c.24-.228.368-.53.356-.841a1.122 1.122 0 0 0-.42-.818 1.45 1.45 0 0 0-.954-.321c-.353.007-.689.137-.934.361-.232.23-.353.53-.338.836.016.307.166.596.42.806.254.21.591.326.94.322a1.44 1.44 0 0 0 .93-.345Zm-2.902-11.591a.577.577 0 0 0 .137-.193.52.52 0 0 0-.015-.445.59.59 0 0 0-.15-.184.68.68 0 0 0-.218-.121.744.744 0 0 0-.506.013.668.668 0 0 0-.21.131c-.254.233-.24.6.029.821.263.218.68.21.932-.022Zm-.85 3.002a.675.675 0 0 0 .22-.514.685.685 0 0 0-.254-.501.886.886 0 0 0-.579-.183.87.87 0 0 0-.56.224.673.673 0 0 0-.222.504c.003.187.089.366.24.498.157.13.367.2.584.195a.875.875 0 0 0 .57-.223Zm.261 3.159a.855.855 0 0 0 .282-.654.87.87 0 0 0-.326-.637 1.123 1.123 0 0 0-.742-.247c-.275.007-.536.11-.724.286a.854.854 0 0 0-.28.653c.008.241.125.47.325.636.419.348 1.073.33 1.465-.037Zm1.252 2.93a.96.96 0 0 0 .317-.733.976.976 0 0 0-.364-.716 1.194 1.194 0 0 0-.386-.213 1.305 1.305 0 0 0-.89.024 1.17 1.17 0 0 0-.37.233 1.016 1.016 0 0 0-.243.338.914.914 0 0 0 .024.785c.063.123.152.233.264.326.226.185.526.284.834.276a1.25 1.25 0 0 0 .814-.32Zm13.647 3.558a.678.678 0 0 0 .219.121.74.74 0 0 0 .506-.014.664.664 0 0 0 .21-.132.573.573 0 0 0 .136-.191.515.515 0 0 0-.015-.444.587.587 0 0 0-.15-.184.677.677 0 0 0-.218-.12.74.74 0 0 0-.505.012.665.665 0 0 0-.21.132.543.543 0 0 0-.18.415c.006.154.08.3.207.405Zm-3.349 1.12a.899.899 0 0 0 1.154-.032.709.709 0 0 0 .17-.237.637.637 0 0 0-.019-.548.724.724 0 0 0-.184-.227.886.886 0 0 0-.586-.195.874.874 0 0 0-.57.226.672.672 0 0 0-.22.513c.007.19.098.369.255.5Zm-3.594.227c.42.349 1.072.332 1.464-.034a.903.903 0 0 0 .216-.301.813.813 0 0 0-.022-.697.921.921 0 0 0-.235-.29 1.126 1.126 0 0 0-.742-.248 1.11 1.11 0 0 0-.726.284.9.9 0 0 0-.215.301.812.812 0 0 0 .025.697.924.924 0 0 0 .235.288Zm-3.392-.76c.111.092.242.164.385.212a1.31 1.31 0 0 0 .89-.023 1.17 1.17 0 0 0 .37-.232c.105-.098.187-.213.24-.339a.915.915 0 0 0-.027-.784 1.038 1.038 0 0 0-.264-.325 1.198 1.198 0 0 0-.385-.212 1.31 1.31 0 0 0-.891.025c-.14.055-.266.134-.37.232a1.012 1.012 0 0 0-.241.338.912.912 0 0 0 .028.783c.063.123.153.233.265.325ZM34.651 13.332c-.395.15-.842.155-1.243.015a1.55 1.55 0 0 1-.89-.762 1.277 1.277 0 0 1-.018-1.093c.078-.174.196-.333.344-.468a1.65 1.65 0 0 1 .523-.315c.394-.14.835-.14 1.228.002.393.142.707.414.875.757.168.343.176.73.023 1.079-.153.348-.455.63-.842.785ZM23.25 4.245a.735.735 0 0 0-.133-.284.847.847 0 0 0-.247-.218 1.013 1.013 0 0 0-.997 0 .846.846 0 0 0-.248.218.734.734 0 0 0-.133.285.69.69 0 0 0 0 .307.798.798 0 0 0 .389.482 1 1 0 0 0 .66.11.913.913 0 0 0 .561-.323.714.714 0 0 0 .148-.577Zm3.847.736a.907.907 0 0 0-.183-.336 1.048 1.048 0 0 0-.315-.25 1.227 1.227 0 0 0-1.205.057c-.115.076-.21.17-.284.278a.841.841 0 0 0-.117.724.91.91 0 0 0 .183.335c.085.1.192.185.315.249s.258.106.4.124c.14.018.284.01.422-.02.139-.031.268-.086.382-.16.115-.076.21-.17.284-.278a.883.883 0 0 0 .14-.351.842.842 0 0 0-.022-.372Zm3.546 1.505a1.15 1.15 0 0 0-.252-.408 1.332 1.332 0 0 0-.41-.292 1.525 1.525 0 0 0-1.032-.08c-.17.045-.328.12-.465.22-.136.1-.249.223-.332.362a1.053 1.053 0 0 0-.093.907c.115.294.355.536.67.677.314.14.678.167 1.015.074a1.33 1.33 0 0 0 .787-.57c.168-.272.208-.592.112-.89Zm2.829 2.216a1.294 1.294 0 0 0-.305-.436 1.498 1.498 0 0 0-.471-.3 1.66 1.66 0 0 0-1.141-.038c-.184.06-.353.15-.497.267a1.33 1.33 0 0 0-.343.414 1.166 1.166 0 0 0-.043 1.004c.138.327.417.592.777.737.36.146.77.16 1.141.039s.673-.367.838-.683c.166-.316.181-.677.044-1.004Zm-17.932-3.57a.579.579 0 0 0-.145-.185.669.669 0 0 0-.214-.121.732.732 0 0 0-.5.007.614.614 0 0 0-.347.314.51.51 0 0 0 .008.439.62.62 0 0 0 .357.305c.161.056.34.054.499-.006.33-.125.485-.463.342-.753Zm16.27 18.919a.78.78 0 0 0-.351.51.716.716 0 0 0 .154.579c.136.168.34.283.571.32a.998.998 0 0 0 .663-.123.84.84 0 0 0 .24-.224.734.734 0 0 0 .125-.287.694.694 0 0 0-.01-.308.746.746 0 0 0-.144-.28.857.857 0 0 0-.254-.212 1.015 1.015 0 0 0-.676-.101.962.962 0 0 0-.319.126Zm1.781-3.074c-.123.065-.23.152-.315.255a.904.904 0 0 0-.179.342.841.841 0 0 0-.014.377.887.887 0 0 0 .153.352c.077.107.178.2.296.273.118.072.252.124.393.15.141.027.287.029.429.006.142-.024.277-.072.397-.142a.962.962 0 0 0 .464-.595.86.86 0 0 0-.143-.712 1.092 1.092 0 0 0-.669-.419 1.215 1.215 0 0 0-.812.113Zm.844-3.46a1.23 1.23 0 0 0-.64.717c-.097.304-.053.63.122.905.087.136.204.256.344.352.14.097.3.168.47.21a1.534 1.534 0 0 0 1.028-.11c.156-.076.292-.178.402-.301a1.14 1.14 0 0 0 .24-.414c.048-.15.062-.307.04-.463a1.09 1.09 0 0 0-.164-.44 1.245 1.245 0 0 0-.343-.354 1.43 1.43 0 0 0-.47-.21 1.53 1.53 0 0 0-1.03.109Zm-.052-3.468a1.38 1.38 0 0 0-.75.755c-.126.33-.099.69.076 1.001.087.155.207.293.355.407.148.113.32.2.505.256a1.68 1.68 0 0 0 1.14-.07 1.48 1.48 0 0 0 .463-.311c.129-.13.227-.28.29-.444a1.16 1.16 0 0 0-.078-1.001 1.452 1.452 0 0 0-.86-.66 1.683 1.683 0 0 0-1.14.067Zm-8.209 14.213a.663.663 0 0 0-.21.126.572.572 0 0 0-.137.188.513.513 0 0 0 .007.439.62.62 0 0 0 .358.305.732.732 0 0 0 .498-.006c.331-.125.485-.462.343-.754a.623.623 0 0 0-.36-.306.737.737 0 0 0-.499.008ZM8.005 23.436c.395-.15.706-.433.864-.785a1.27 1.27 0 0 0-.02-1.092 1.433 1.433 0 0 0-.358-.459 1.658 1.658 0 0 0-.53-.302 1.817 1.817 0 0 0-1.242.016 1.644 1.644 0 0 0-.522.316 1.422 1.422 0 0 0-.345.467 1.275 1.275 0 0 0 .018 1.093c.17.348.491.622.892.761.4.14.847.135 1.243-.015ZM9.56 10.095a.84.84 0 0 0 .24-.223.733.733 0 0 0 .126-.287.694.694 0 0 0-.01-.307.744.744 0 0 0-.142-.28.854.854 0 0 0-.253-.213 1.012 1.012 0 0 0-.676-.102.955.955 0 0 0-.32.127.84.84 0 0 0-.24.222.731.731 0 0 0-.127.288.693.693 0 0 0 .01.308.743.743 0 0 0 .144.28.92.92 0 0 0 .58.32.995.995 0 0 0 .668-.133Zm-1.78 3.073a1.04 1.04 0 0 0 .307-.257.902.902 0 0 0 .172-.341.843.843 0 0 0 .01-.373.89.89 0 0 0-.152-.348 1.094 1.094 0 0 0-.68-.42 1.212 1.212 0 0 0-.818.125.966.966 0 0 0-.478.597.859.859 0 0 0 .142.72c.154.214.398.365.679.421.28.056.574.011.818-.124Zm-.846 3.46c.16-.074.302-.175.417-.299.115-.123.2-.264.252-.417a1.052 1.052 0 0 0-.118-.92 1.25 1.25 0 0 0-.351-.358 1.436 1.436 0 0 0-.482-.21 1.533 1.533 0 0 0-1.043.13c-.312.155-.54.412-.637.716-.096.303-.052.627.124.902.175.274.467.476.812.562a1.52 1.52 0 0 0 1.026-.106Zm.052 3.47a1.38 1.38 0 0 0 .752-.757c.126-.33.098-.69-.077-1.002a1.342 1.342 0 0 0-.355-.407 1.55 1.55 0 0 0-.506-.256 1.68 1.68 0 0 0-1.14.07 1.487 1.487 0 0 0-.462.312c-.129.13-.228.28-.29.444a1.164 1.164 0 0 0 .076 1.001c.176.312.486.55.861.662.376.111.786.087 1.141-.068Zm11.133 9.804a.74.74 0 0 0 .135.284c.065.087.15.16.247.218a.97.97 0 0 0 .324.118c.116.02.235.02.35 0a.913.913 0 0 0 .57-.338.713.713 0 0 0 .132-.592.794.794 0 0 0-.382-.5 1.001 1.001 0 0 0-.673-.118.91.91 0 0 0-.57.336.712.712 0 0 0-.133.592Zm-3.844-.738a.907.907 0 0 0 .182.337c.085.1.192.185.315.25a1.23 1.23 0 0 0 .823.104c.138-.032.267-.087.381-.162.114-.075.21-.17.283-.277a.88.88 0 0 0 .141-.351.842.842 0 0 0-.023-.372.908.908 0 0 0-.183-.336 1.05 1.05 0 0 0-.315-.248 1.233 1.233 0 0 0-.822-.104 1.152 1.152 0 0 0-.381.16c-.114.076-.21.17-.283.277a.843.843 0 0 0-.118.722ZM10.73 27.66c.052.15.137.289.25.409.114.12.254.22.411.292a1.523 1.523 0 0 0 1.496-.14c.137-.1.25-.223.333-.362a1.05 1.05 0 0 0 .093-.907 1.244 1.244 0 0 0-.664-.699 1.525 1.525 0 0 0-1.033-.082c-.17.046-.327.122-.463.222-.137.1-.25.222-.332.36-.082.14-.133.29-.148.446-.016.155.003.312.057.461Zm-2.83-2.218c.067.162.17.31.304.437.133.127.293.23.471.301a1.655 1.655 0 0 0 1.142.037c.363-.125.656-.371.816-.684.16-.314.173-.67.038-.991a1.392 1.392 0 0 0-.762-.732 1.68 1.68 0 0 0-1.126-.053c-.371.12-.672.366-.838.682a1.168 1.168 0 0 0-.045 1.003Zm21.35 1.157a.597.597 0 0 0-.245.409.565.565 0 0 0 .148.443.728.728 0 0 0 .457.228c.18.021.363-.02.509-.116a.65.65 0 0 0 .186-.182.543.543 0 0 0 .072-.476.592.592 0 0 0-.126-.218.688.688 0 0 0-.213-.158.77.77 0 0 0-.544-.048.732.732 0 0 0-.244.118Zm-6.564 2.488a.724.724 0 0 0-.46.242.562.562 0 0 0-.039.684c.047.069.11.13.183.178a.793.793 0 0 0 .777.035.679.679 0 0 0 .204-.161.585.585 0 0 0 .118-.217.542.542 0 0 0-.078-.468.654.654 0 0 0-.184-.178.793.793 0 0 0-.521-.115ZM19.278 4.36a.57.57 0 0 0-.092-.227.653.653 0 0 0-.184-.178.793.793 0 0 0-.521-.114.722.722 0 0 0-.46.241.56.56 0 0 0-.13.457.607.607 0 0 0 .274.404.774.774 0 0 0 .52.115.724.724 0 0 0 .46-.241.562.562 0 0 0 .133-.457Zm-7.042 2.322a.773.773 0 0 0-.985-.101.623.623 0 0 0-.232.294.546.546 0 0 0-.007.358.615.615 0 0 0 .22.301.786.786 0 0 0 .774.08.67.67 0 0 0 .293-.25.556.556 0 0 0-.063-.682ZM39.247 18.901c-.551 0-1.08-.194-1.47-.537a1.725 1.725 0 0 1-.608-1.294c0-.24.054-.478.158-.7.105-.222.258-.423.451-.593.193-.17.423-.304.675-.395.253-.092.524-.139.797-.138.273 0 .544.047.796.138.253.092.482.227.675.397.193.17.347.371.45.593.105.222.158.46.158.7 0 .485-.22.95-.61 1.294-.39.343-.92.535-1.472.535ZM31.082 3.13a.887.887 0 0 0 .006-.394.94.94 0 0 0-.165-.366 1.08 1.08 0 0 0-.313-.281 1.298 1.298 0 0 0-.86-.161c-.148.023-.29.072-.416.144a1.092 1.092 0 0 0-.321.275.91.91 0 0 0-.017 1.122c.165.224.426.381.724.437.297.056.608.006.864-.14.255-.146.434-.375.498-.636Zm4.098 2.58c.029-.16.022-.321-.02-.477a1.158 1.158 0 0 0-.227-.433 1.338 1.338 0 0 0-.399-.324 1.512 1.512 0 0 0-.509-.165c-.36-.043-.725.04-1.017.231a1.21 1.21 0 0 0-.544.79 1.11 1.11 0 0 0 .24.9c.21.26.528.438.886.496.364.05.736-.03 1.034-.22.298-.191.498-.478.556-.799Zm5.35 7.22a1.493 1.493 0 0 0-.106-.65 1.65 1.65 0 0 0-.382-.563 1.91 1.91 0 0 0-.598-.392 2.123 2.123 0 0 0-.723-.16 2.15 2.15 0 0 0-.738.092 1.975 1.975 0 0 0-.642.335 1.715 1.715 0 0 0-.446.526c-.108.2-.17.415-.183.636-.015.221.02.443.102.653.083.21.212.403.38.569.168.165.372.3.6.396a2.156 2.156 0 0 0 1.469.068 1.98 1.98 0 0 0 .643-.34c.186-.149.338-.329.445-.53.107-.2.168-.418.179-.64ZM21.5.733c0-.407-.374-.733-.836-.733a.89.89 0 0 0-.571.224.69.69 0 0 0-.234.51c0 .19.084.373.234.51a.89.89 0 0 0 .57.223c.463 0 .837-.327.837-.734Zm8.22 29.506c-.148.027-.288.08-.412.155-.124.076-.23.171-.313.283a.91.91 0 0 0-.16.76c.063.262.243.491.498.637.256.146.567.197.865.14.298-.055.559-.212.724-.437a.91.91 0 0 0 .16-.76 1.02 1.02 0 0 0-.497-.637 1.282 1.282 0 0 0-.865-.141Zm3.869-2.82a1.52 1.52 0 0 0-.514.162 1.344 1.344 0 0 0-.404.323c-.109.13-.187.278-.23.435a1.08 1.08 0 0 0-.023.48c.028.16.093.312.189.45.096.137.223.257.372.351.149.095.318.162.497.199.178.037.364.042.545.015.361-.053.684-.23.899-.49a1.11 1.11 0 0 0 .245-.906 1.21 1.21 0 0 0-.55-.795 1.538 1.538 0 0 0-1.026-.224Zm2.987-3.693a1.81 1.81 0 0 0-1.165.557 1.4 1.4 0 0 0-.377 1.118c.048.402.276.77.633 1.025.357.254.815.373 1.272.33.226-.02.446-.08.646-.175a1.7 1.7 0 0 0 .52-.38 1.47 1.47 0 0 0 .315-.526c.065-.192.086-.394.061-.593a1.484 1.484 0 0 0-.633-1.024 1.904 1.904 0 0 0-1.272-.332Zm1.941-4.102c-.506.024-.98.224-1.318.555a1.564 1.564 0 0 0-.488 1.21c.013.221.075.438.183.637.108.2.26.378.446.526.187.147.405.261.642.334.236.074.488.105.738.093a2.12 2.12 0 0 0 .723-.16c.227-.095.43-.229.598-.393.168-.164.297-.355.381-.563.084-.208.12-.429.106-.65a1.613 1.613 0 0 0-.631-1.16 2.081 2.081 0 0 0-1.38-.43ZM20.665 32.678a.893.893 0 0 0-.577.221.691.691 0 0 0-.237.513c0 .191.085.375.237.512a.893.893 0 0 0 1.167.007.692.692 0 0 0 .245-.52.692.692 0 0 0-.245-.518.896.896 0 0 0-.59-.215ZM2.082 18.9a2.234 2.234 0 0 0 1.469-.538c.389-.343.608-.808.607-1.293 0-.24-.053-.477-.157-.699a1.827 1.827 0 0 0-.45-.593 2.113 2.113 0 0 0-.674-.396 2.324 2.324 0 0 0-.795-.138c-.274 0-.544.047-.797.139a2.118 2.118 0 0 0-.676.396c-.193.17-.346.372-.45.593-.105.223-.16.46-.159.7.001.486.22.95.611 1.293.39.343.919.536 1.47.536Zm9.527-14.996a1.16 1.16 0 0 0 .724-.437.91.91 0 0 0-.016-1.122 1.092 1.092 0 0 0-.321-.274 1.24 1.24 0 0 0-.416-.146 1.3 1.3 0 0 0-.86.162c-.123.075-.23.17-.311.282a.942.942 0 0 0-.166.365.889.889 0 0 0 .006.394.95.95 0 0 0 .176.361c.085.11.194.203.32.275a1.302 1.302 0 0 0 .863.14ZM7.741 6.727c.365-.051.692-.227.909-.49.217-.263.306-.59.249-.91a1.133 1.133 0 0 0-.188-.449 1.3 1.3 0 0 0-.369-.35 1.485 1.485 0 0 0-.493-.2 1.576 1.576 0 0 0-1.052.148c-.155.084-.29.194-.398.323-.107.13-.184.277-.227.434-.042.156-.049.317-.02.476.057.32.257.607.555.798.298.191.67.27 1.034.22Zm-2.99 3.691a1.802 1.802 0 0 0 1.139-.567c.28-.312.41-.708.364-1.104a1.48 1.48 0 0 0-.617-1.014 1.898 1.898 0 0 0-1.247-.347c-.227.02-.447.08-.647.176-.2.096-.377.225-.52.38-.144.156-.25.335-.315.528a1.345 1.345 0 0 0-.06.592c.023.2.091.392.2.568.108.176.255.331.432.457s.38.22.598.277c.218.057.447.075.674.054Zm-1.94 4.102a2.027 2.027 0 0 0 1.32-.554c.34-.331.515-.768.488-1.213a1.517 1.517 0 0 0-.183-.636c-.108-.2-.26-.378-.447-.526a1.979 1.979 0 0 0-.642-.335 2.15 2.15 0 0 0-.74-.092c-.25.011-.496.066-.722.16-.227.096-.43.229-.598.393a1.651 1.651 0 0 0-.381.563c-.084.209-.12.429-.107.65.027.445.254.863.631 1.16a2.08 2.08 0 0 0 1.38.43Zm7.438 16.495a.89.89 0 0 0-.006.394c.027.13.084.255.166.366.082.111.188.207.312.282a1.303 1.303 0 0 0 .86.16c.148-.024.29-.073.415-.145.127-.072.236-.166.321-.275a.91.91 0 0 0 .016-1.121 1.162 1.162 0 0 0-.723-.438 1.282 1.282 0 0 0-.864.142 1.02 1.02 0 0 0-.497.636Zm-4.097-2.58c-.029.158-.022.32.02.476.043.157.12.304.227.434.107.13.243.24.398.324a1.563 1.563 0 0 0 1.309.068c.25-.101.46-.265.604-.471.144-.206.215-.445.204-.687a1.13 1.13 0 0 0-.264-.67 1.386 1.386 0 0 0-.643-.43 1.572 1.572 0 0 0-.806-.041c-.267.056-.51.18-.696.358-.187.178-.31.4-.353.639Zm-3.305-3.352c-.024.2-.003.4.061.592.064.192.171.371.315.527.143.155.32.285.52.38a1.957 1.957 0 0 0 1.32.122c.218-.057.422-.15.599-.277.177-.126.324-.281.432-.457.109-.176.177-.369.2-.568.024-.2.003-.4-.062-.592a1.47 1.47 0 0 0-.315-.527 1.702 1.702 0 0 0-.52-.38 1.96 1.96 0 0 0-1.32-.122c-.218.057-.421.15-.598.277a1.585 1.585 0 0 0-.432.457 1.392 1.392 0 0 0-.2.568ZM.8 21.213c-.013.22.023.441.107.65.083.207.213.399.38.563.169.164.372.297.599.392.226.095.472.15.722.16a2.15 2.15 0 0 0 .74-.091c.237-.074.456-.187.643-.335.187-.148.338-.326.447-.526.108-.2.17-.416.182-.637.026-.445-.15-.88-.488-1.212a2.027 2.027 0 0 0-1.32-.554 2.082 2.082 0 0 0-1.38.43 1.614 1.614 0 0 0-.632 1.16Zm24.443 10.88a.892.892 0 0 0-.544.368.708.708 0 0 0-.09.599.811.811 0 0 0 .418.478 1.006 1.006 0 0 0 .995-.057.828.828 0 0 0 .231-.232.696.696 0 0 0 .09-.599.812.812 0 0 0-.418-.478 1.007 1.007 0 0 0-.682-.078Zm-9.155 0a1.004 1.004 0 0 0-.67.088.809.809 0 0 0-.41.474.705.705 0 0 0 .085.59c.115.18.306.313.53.37a1.014 1.014 0 0 0 .691-.07.873.873 0 0 0 .269-.203.755.755 0 0 0 .157-.279.696.696 0 0 0-.094-.605.833.833 0 0 0-.238-.232.953.953 0 0 0-.32-.133ZM26.343 1.494a.696.696 0 0 0-.09-.598.83.83 0 0 0-.232-.231.953.953 0 0 0-.315-.136 1.003 1.003 0 0 0-.66.096.807.807 0 0 0-.4.47.705.705 0 0 0 .08.584.881.881 0 0 0 .867.393.984.984 0 0 0 .331-.098.872.872 0 0 0 .264-.203.754.754 0 0 0 .155-.277Zm-9.62-.409a.755.755 0 0 0-.155-.276.871.871 0 0 0-.264-.203 1.015 1.015 0 0 0-.995.058.829.829 0 0 0-.231.231.694.694 0 0 0-.09.598c.03.1.083.194.155.276a.873.873 0 0 0 .263.204 1.018 1.018 0 0 0 .681.08.952.952 0 0 0 .315-.137.831.831 0 0 0 .23-.232.696.696 0 0 0 .09-.6ZM38.272 9.851c-.28.313-.69.516-1.138.567a1.957 1.957 0 0 1-.673-.054 1.821 1.821 0 0 1-.599-.277 1.585 1.585 0 0 1-.432-.457 1.393 1.393 0 0 1-.2-.568c-.025-.199-.004-.4.06-.592.065-.193.172-.372.315-.527.143-.156.32-.285.52-.38.2-.096.42-.156.647-.177.451-.032.899.093 1.247.347.348.254.57.618.617 1.014.047.396-.084.792-.364 1.104Z" fill="#230B59"/></svg>