<svg width="39" height="39" fill="none" xmlns="http://www.w3.org/2000/svg"><mask id="a" style="mask-type:alpha" maskUnits="userSpaceOnUse" x="0" y="-1" width="40" height="40"><circle r="19.5" transform="matrix(-1 0 0 1 19.501 19.5)" fill="#D9D9D9"/></mask><g mask="url(#a)"><path fill="#7086C9" d="M45.095-6.907H-7.31v57.688h52.406z"/><path d="M27.349 21.278h-2.5c.225-1.25-.2-2.475-1.2-3.3-.225-.2-.5-.325-.825-.425-.175-2.4-2.075-3.45-4.3-3.45-.2 0-.375.025-.575.05-.175-3.025-2.05-5.125-4.625-5.125-1.4 0-2.375.925-2.375 2.175 0 1.45 2.075 1.85 2.075 3.325 0 .6-.05.7-1.275 2.4-1.1 1.425-1.575 2.925-1.375 4.25-1 0-1.75.95-1.75 2.45 0 2.8 2.175 5.6 4.4 5.6 1.025 0 1.7-.4 1.875-1.05.475.125 1 .2 1.575.2 1.7 0 3.625-.9 5.375-2.525.15-.175.575-.175 1.275 0 .8.175 1.75.275 2.1.275 3.375 0 5.025-.95 5.025-2.875 0-1.3-1-1.975-2.9-1.975Zm-2.125 3.875c-.775 0-1.425-.075-2.375-.225-.9-.15-1.275-.075-1.675.275-1.425 1.45-3.25 2.35-4.8 2.35-1.275 0-2.45-.5-3.825-1.575.325.85.875 1.475 1.6 1.875-.25.375-.575.525-1.025.525-1.575 0-3.5-2.575-3.5-4.75 0-1.025.3-1.5.975-1.6.15.4.375.75.65 1.075-.5-2.325-.2-3.675 1.325-5.6 1.3-1.8 1.475-2.15 1.475-2.975 0-2.1-2.05-2.55-2.05-3.325 0-.775.55-1.325 1.325-1.325 1.875 0 3.4 1.725 3.825 4.475-.525.2-1 .475-1.35.825 2.825-.775 5.275-.25 6.05 2.2-.625-.025-1.25.125-1.6.425 2.25-.125 3.825 1.4 3.625 3.5-.55 0-1.075.025-1.525.05 1.65.675 3.025.925 4.925.925 1.325 0 1.9.3 1.9.975 0 1.3-1.225 1.9-3.95 1.9Zm-11.1-6.725c.675-.45.125-1-.4-.625-.95.6-1.525 1.3-1.925 2.25-.2.575.3.775.55.25.425-.75.975-1.3 1.775-1.875Zm1.25 1.275c.625-.325.325-1.25-.475-.825-1 .6-1.625 1.25-2.45 2.4-.4.55.15 1.1.55.5.625-.875 1.275-1.45 2.375-2.075Zm.6 1.05c-1 .3-1.875.875-2.725 1.85-.45.45.1.925.5.4.575-.65 1.475-1.2 2.625-1.55.575-.2.375-.925-.4-.7Z" fill="#F7E9E2"/></g></svg>