<svg width="39" height="39" fill="none" xmlns="http://www.w3.org/2000/svg"><mask id="a" style="mask-type:alpha" maskUnits="userSpaceOnUse" x="0" y="-1" width="40" height="40"><circle r="19.5" transform="matrix(-1 0 0 1 19.501 19.5)" fill="#D9D9D9"/></mask><g mask="url(#a)"><path fill="#230B59" d="M45.095-6.907H-7.31v57.688h52.406z"/><path d="M27.025 19.294c0-1.848-1.68-3.264-4.008-3.264-1.464 0-2.52.36-2.856.36-.144 0-.24-.12-.24-.312 0-1.056.816-1.824.816-3.72 0-2.184-1.584-3.816-3.48-3.816-1.152 0-1.968.744-1.968 1.872 0 .792.408 2.016.432 3.36.024 1.296-.288 2.232-1.224 3.264-.84.912-1.296 1.824-1.464 2.712-.768.84-1.2 1.992-1.2 3.36 0 2.352 1.296 4.056 3.312 4.536.576.912 1.584 1.416 2.784 1.416.264 0 .528-.024.744-.048.768.408 1.728.672 2.832.672 1.848 0 2.904-.936 2.904-2.64 0-.168-.024-.36-.072-.552 1.44-.384 2.424-1.488 2.424-3.12 0-.72-.216-1.344-.648-1.92a2.932 2.932 0 0 0 .912-2.16ZM14.69 25.078a3.669 3.669 0 0 0 .024 1.56c-1.032-.264-2.016-1.824-2.016-3.192 0-.768.144-1.416.432-1.968.216.84.696 1.56 1.248 2.064-.384-1.056-.576-1.8-.576-2.448 0-1.032.168-1.872 1.608-3.624 1.032-1.296 1.344-2.28 1.344-3.288 0-1.44-.504-3.12-.504-3.72 0-.624.48-1.032 1.032-1.032 1.2 0 2.448 1.488 2.448 3.048 0 1.488-.864 2.352-.864 3.552 0 .72.336 1.176.936 1.176.48 0 1.752-.312 3.216-.312 1.68 0 3.048 1.2 3.048 2.568 0 1.2-1.128 1.944-2.952 1.944-1.968 0-3.504-.864-3.504-2.016 0-.912 1.224-1.608 3.096-1.464-.384-.216-.864-.336-1.512-.336-1.464 0-2.64.816-2.64 1.968 0 .624.192 1.128.528 1.56-.36 1.464-1.56 2.64-3.312 3.144 1.128.12 1.992-.096 2.856-.672.024.216.072.408.168.6-1.224.312-1.968 1.128-1.968 2.088 0 .552.168 1.08.504 1.56-1.104-.144-1.968-.912-2.64-2.76Zm11.064-1.56c0 1.368-.84 2.16-2.304 2.16-1.968 0-3.816-1.248-3.816-2.592 0-.408.192-.744.6-1.128.792.36 1.824.528 3 .528.696 0 1.344-.144 1.896-.384.432.408.624.792.624 1.416Zm-2.184 3.624c0 1.008-.912 1.704-2.232 1.704-1.848 0-3.552-1.176-3.552-2.52 0-.648.6-1.344 1.344-1.536.84 1.104 2.52 1.848 4.008 1.848.12 0 .24 0 .36-.024.048.192.072.36.072.528Z" fill="#FFF3D8"/></g></svg>