<svg width="36" height="43" fill="none" xmlns="http://www.w3.org/2000/svg"><g clip-path="url(#a)"><path d="M17.78 9.443c8.696 0 15.773 7.077 15.773 15.774S26.476 40.99 17.779 40.99 2.006 33.918 2.006 25.217 9.082 9.443 17.779 9.443Zm0-2.005C7.958 7.438 0 15.396 0 25.216c0 9.82 7.959 17.779 17.78 17.779 9.82 0 17.779-7.959 17.779-17.78 0-9.82-7.96-17.779-17.78-17.779Z" fill="#230B59"/><path d="M18.321.842h-1.075v2.002h1.075V.842Z" stroke="#230B59" stroke-width="1.211" stroke-miterlimit="10"/><path d="M20.796 1.821a.537.537 0 1 0 0-1.075H14.76a.538.538 0 1 0 0 1.075h6.037Z" stroke="#230B59" stroke-width="1.484" stroke-miterlimit="10"/><path d="M17.916 25.502V11.995v13.507Z" stroke="#230B59" stroke-width="2.174" stroke-linejoin="round"/><path d="M17.928 13.447a.838.838 0 1 0 0-1.677.838.838 0 0 0 0 1.677ZM24.194 15.164a.838.838 0 1 0 0-1.677.838.838 0 0 0 0 1.677ZM28.763 19.785a.838.838 0 1 0 0-1.677.838.838 0 0 0 0 1.677ZM30.408 26.075a.838.838 0 1 0 0-1.677.838.838 0 0 0 0 1.677ZM28.69 32.341a.838.838 0 1 0 0-1.677.838.838 0 0 0 0 1.677ZM24.065 36.906a.838.838 0 1 0 0-1.676.838.838 0 0 0 0 1.676ZM17.78 38.551a.838.838 0 1 0 0-1.677.838.838 0 0 0 0 1.677ZM11.513 36.834a.838.838 0 1 0 0-1.677.838.838 0 0 0 0 1.677ZM6.944 32.213a.838.838 0 1 0 0-1.677.838.838 0 0 0 0 1.677ZM5.3 25.927a.838.838 0 1 0 0-1.677.838.838 0 0 0 0 1.677ZM7.02 19.66a.838.838 0 1 0 0-1.676.838.838 0 0 0 0 1.677ZM11.641 15.091a.838.838 0 1 0 0-1.676.838.838 0 0 0 0 1.677Z" fill="#230B59" stroke="#230B59" stroke-width=".309" stroke-miterlimit="10"/><path d="M17.928 13.447a.838.838 0 1 0 0-1.677.838.838 0 0 0 0 1.677Z" fill="#230B59" stroke="#230B59" stroke-width=".309" stroke-miterlimit="10"/><path d="M18.305 2.744h-1.167A3.585 3.585 0 0 0 13.55 6.33v2.122c0 .273.22.494.494.494h7.47c.272 0 .493-.22.493-.494V6.447a3.701 3.701 0 0 0-3.703-3.703Zm-2.748 3.703V6.33c0-.874.71-1.58 1.58-1.58h1.168c.285 0 .55.072.786.196a.53.53 0 0 1 .265.534c-.056.53-.337 1.46-1.577 1.46H16.05a.493.493 0 0 1-.493-.493Z" fill="#230B59"/></g><defs><clipPath id="a"><path fill="#fff" d="M0 0h35.563v43H0z"/></clipPath></defs></svg>