<svg version="1.0" xmlns="http://www.w3.org/2000/svg" width="309.333" height="309.333" fill="#230B59" viewBox="0 0 232 232"><path d="M134.6 40c-22.4 5.7-40.9 20.7-51.2 41.5-7.5 15.4-8.1 22.5-1.9 24.1 4.1 1 6.8-1.6 9.2-9.2 7.5-23.3 27.8-40.8 52.1-45.1 28.2-5 56.8 9.8 69.5 36.1 9.4 19.2 9 42.7-1 61.9-5.7 10.8-17.4 22.2-28.3 27.6-19.2 9.4-39.8 9.4-58.5.2-16.3-8.1-28.2-21.5-33.6-38-1.2-3.6-2.9-7.4-3.7-8.4-2.4-2.7-7.3-1.9-9.1 1.5-2 3.5-.6 9.1 5 20.5 9.9 20.5 28.9 36.1 50.9 42 10.3 2.8 31.3 2.5 41-.5 34.9-11 57-40.6 57-76.6 0-31.4-16.2-58-43.5-71.6-11.6-5.7-18-7.2-33-7.6-10.6-.3-14.5 0-20.9 1.6z"/><path d="M41.2 62.4C22.7 66.9 6.6 83.3 1.5 102.6c-1.9 7.4-1.9 22.3 0 29.7C6.6 151.9 23 168 42.6 172.6c13.3 3.1 33.9-.6 37.3-6.8 1.4-2.5 1.4-2.9-.5-5.5-2.5-3.3-5.7-3.5-14.9-1-14.5 4.1-29.6-.3-40.4-11.8C.3 122.4 13.9 80.2 47.8 74c6.8-1.2 15.3-.3 21.8 2.5 4.7 1.9 7.8 1.3 10-2.1 3.4-5.1-1.8-9.6-14.4-12.3-6.8-1.4-17.2-1.3-24 .3z"/><path d="M136.1 63.6c-1.2 1.5-2.1 2.9-2 3.3.2 2.2 3.1 5.2 16.9 18 22.4 20.7 23.3 21.7 22 24.1-1.1 2-2.1 2-70.3 2-77.1 0-73.7-.3-73.7 6.5s-3.4 6.5 74.1 6.5c69.2 0 69.7 0 70.2 2 .4 1.7-3.2 5.5-18.2 19.5-10.3 9.6-19.3 18.6-20 19.9-2.1 3.8 1.6 8.6 6.6 8.6 2.3 0 57.3-50.8 58.5-53.9.4-1.3.5-3.4.2-4.7-.4-1.5-11.6-12.7-28.6-28.4-30.4-28.3-31.4-28.9-35.7-23.4z"/></svg>