<svg width="129" height="70" fill="none" xmlns="http://www.w3.org/2000/svg">
  <path
      d="M29.349 31.222h.471a24321.52 24321.52 0 0 1 7.118 36.267c.267 1.415.657 2.195 2.42 2.195 1.765 0 2.052-.882 2.257-2.154L53.554 9.848c1.025-4.903 1.784-5.662 6.646-6.503V1.294H45.184v2.195l1.682.164a3.139 3.139 0 0 1 3.16 3.508c.023.812-.046 1.624-.206 2.42a7054.764 7054.764 0 0 1-6.913 37.764c-.159.49-.365.965-.615 1.416a70098.774 70098.774 0 0 1-6.728-34.483c-.43-2.256-.964-4.512-1.17-6.81-.246-2.666.637-3.548 3.283-3.856.337-.03.672-.079 1.005-.144V1.417H20.61l.123 2.215c2.77 0 3.856 1.498 4.287 3.857.76 4.102 1.682 8.082 2.339 12.164a16.41 16.41 0 0 1 0 5.19c-.841 5.271-1.867 10.523-2.852 15.774-.512 2.79-1.066 5.58-1.6 8.349a1.478 1.478 0 0 1-.594-1.005c-2.503-13.32-4.985-26.633-7.446-39.939-.554-3.036.122-3.856 3.384-4.533V1.438H.179v2.194c4.103.493 4.739 1.129 5.539 5.088 3.856 19.528 7.699 39.056 11.528 58.584.37 2.052 1.087 2.893 3.118 2.503l1.23-.185 7.755-38.4Z"
      fill="#fff"/>
  <path
      d="m73.635 69.971-9.784-3.651c-.882.348 0 3.446-2.749 3.036V46.217l1.744-.164c.107.287.189.582.246.882.39 3.015.595 6.051 1.21 9.026a14.83 14.83 0 0 0 4.964 8.451 9.867 9.867 0 0 0 10.687 1.682c3.59-1.456 4.39-4.759 4.718-8.205.677-7.036-2.523-12.451-7.487-17.026-3.446-3.159-7.261-5.969-10.523-9.292a20.8 20.8 0 0 1-5.723-19.651c2.564-12.575 15.836-13.108 22.4-8.493l1.58 1.108c1.476-.636.882-3.344 3.364-2.872V24.68l-1.764.164a82.59 82.59 0 0 0-1.005-8.964A23.9 23.9 0 0 0 82.6 8.186a10.995 10.995 0 0 0-5.17-3.938c-4.759-1.723-8.738.82-9.682 5.764a13.395 13.395 0 0 0 4.595 13.005c3.487 3.2 7.282 6.154 10.79 9.313a26.256 26.256 0 0 1 8.43 25.23 13.682 13.682 0 0 1-11.671 11.98 4.1 4.1 0 0 0-.923.39l-5.334.041ZM128.857 3.653h-2.236a3.053 3.053 0 0 0-2.843 1.882 3.054 3.054 0 0 0-.234 1.174c-.103 1.764 0 3.529 0 5.293v41.661a26.227 26.227 0 0 1-.472 5.662 12.517 12.517 0 0 1-12.123 10.256 13.315 13.315 0 0 1-14.568-10.026 13.311 13.311 0 0 1 .004-6.384c0-.267.143-.513.225-.78a5.724 5.724 0 0 1 5.539-4.533 4.47 4.47 0 0 1 4.246 4.103 5.91 5.91 0 0 1-3.59 6.605c-.554.225-1.149.41-1.682.595a7.237 7.237 0 0 0 7.139 7.59 5.042 5.042 0 0 0 3.814-1.178 5.059 5.059 0 0 0 1.765-3.582c.308-1.94.452-3.902.431-5.866V9.19c0-4.677-.472-5.21-5.313-5.702l-.102-2.216H129l-.143 2.38ZM29.349 31.222l-7.734 38.215-1.23.185c-2.052.39-2.75-.533-3.119-2.503A14760.3 14760.3 0 0 0 5.738 8.535C4.938 4.575 4.261 3.94.2 3.448V1.253h18.072v2.051c-3.262.677-3.939 1.497-3.385 4.533a7888.39 7888.39 0 0 0 7.446 39.939 1.478 1.478 0 0 0 .595 1.005c.533-2.77 1.087-5.56 1.6-8.349.985-5.251 2.051-10.502 2.851-15.774.275-1.72.275-3.471 0-5.19-.656-4.102-1.58-8.205-2.338-12.164-.431-2.359-1.518-3.918-4.287-3.856l-.123-2.216h18.071v2.051a9.863 9.863 0 0 1-1.005.144c-2.646.308-3.528 1.19-3.282 3.856.205 2.298.739 4.554 1.17 6.81 2.215 11.365 4.43 22.729 6.728 34.483.25-.451.456-.925.615-1.416 2.311-12.594 4.615-25.182 6.913-37.764.16-.796.228-1.608.205-2.42a3.139 3.139 0 0 0-3.16-3.508l-1.681-.164V1.109H60.22V3.16c-4.861.841-5.62 1.6-6.646 6.503L41.636 67.345c-.247 1.272-.513 2.174-2.257 2.154-1.743-.02-2.154-.78-2.42-2.195a10030.62 10030.62 0 0 0-7.118-36.267l-.492.185Z"
      fill="#230B59"/>
</svg>
